<?xml version="1.0" standalone="no"?>
<!DOCTYPE svg PUBLIC "-//W3C//DTD SVG 20010904//EN"
 "http://www.w3.org/TR/2001/REC-SVG-20010904/DTD/svg10.dtd">
<svg version="1.0" xmlns="http://www.w3.org/2000/svg"
 width="5000.000000pt" height="3764.000000pt" viewBox="0 0 5000.000000 3764.000000"
 preserveAspectRatio="xMidYMid meet">

<g transform="translate(0.000000,3764.000000) scale(0.100000,-0.100000)"
fill="#000000" stroke="none">
<path d="M22240 34549 c-813 -53 -1574 -327 -2195 -789 -303 -226 -404 -341
-590 -675 -162 -290 -1601 -2816 -1642 -2883 l-20 -33 -200 393 c-111 216
-299 586 -418 822 l-218 429 -20 -24 c-52 -63 -138 -312 -207 -604 -24 -99
-47 -184 -51 -190 -4 -5 -113 -64 -243 -130 l-235 -120 -43 17 c-24 9 -126 51
-228 92 -222 90 -401 145 -493 153 l-68 6 190 -374 c105 -206 293 -576 419
-824 126 -247 229 -451 228 -452 -1 -1 -787 88 -1746 198 -960 110 -1794 202
-1855 206 -137 7 -259 -8 -441 -52 -511 -125 -1052 -398 -1489 -748 -645 -517
-1135 -1209 -1478 -2083 -76 -196 -136 -354 -133 -354 1 0 67 64 146 143 409
404 858 664 1318 761 143 30 399 52 462 39 l44 -9 -20 -20 c-60 -60 -174 -236
-174 -268 0 -9 -4 -16 -10 -16 -5 0 -10 -18 -10 -40 0 -22 -4 -40 -10 -40 -5
0 -10 -6 -10 -14 0 -8 -4 -16 -9 -18 -5 -1 -11 -12 -13 -23 -1 -11 -9 -26 -16
-33 -7 -8 -10 -18 -7 -23 4 -5 1 -9 -4 -9 -7 0 -11 -28 -11 -73 0 -59 4 -77
18 -90 10 -10 24 -17 30 -17 7 0 12 -8 12 -17 0 -12 3 -14 8 -6 5 8 22 10 49
6 24 -3 40 -9 37 -14 -7 -11 -6 -11 98 -13 l86 -1 8 55 c4 30 7 58 6 63 -1 4
3 7 8 7 6 0 10 -4 10 -9 0 -6 8 -10 18 -10 138 -6 231 -15 227 -21 -3 -5 9 -4
27 1 18 5 46 7 61 3 15 -3 119 -7 230 -9 203 -3 319 -10 347 -21 8 -3 41 -7
74 -9 90 -6 93 -9 100 -69 6 -46 10 -54 29 -54 44 -2 75 -8 88 -19 8 -6 45
-16 83 -22 37 -7 91 -24 120 -38 46 -24 65 -27 216 -33 156 -7 197 -14 263
-46 16 -8 37 -14 47 -14 10 0 20 -7 23 -14 3 -8 24 -20 47 -26 23 -6 43 -17
46 -24 3 -8 13 -12 22 -9 10 2 28 -5 41 -16 13 -12 31 -21 40 -21 37 0 59 -29
66 -85 4 -30 11 -53 15 -50 4 2 22 0 41 -5 108 -29 303 -6 514 62 88 29 162
55 165 58 3 3 32 23 65 45 33 21 80 56 105 76 25 21 59 44 75 51 29 12 27 13
-46 18 l-77 5 39 25 c21 13 39 28 39 32 0 4 4 8 10 8 13 0 103 68 113 86 16
27 27 2 27 -59 0 -34 4 -57 8 -51 4 6 18 17 32 24 14 7 42 26 62 42 21 16 42
27 48 23 5 -3 10 -1 10 4 0 6 5 11 11 11 6 0 66 27 133 59 66 33 171 76 231
96 61 20 119 40 130 45 11 4 34 8 50 9 33 2 40 3 170 25 50 9 120 16 158 16
l67 0 0 45 c0 42 2 45 28 46 15 1 45 4 67 6 56 8 355 5 374 -3 9 -4 33 -6 54
-5 20 2 37 -2 37 -7 0 -4 14 -7 30 -4 17 2 52 -2 78 -9 26 -7 50 -12 55 -11 4
1 7 -3 7 -9 0 -7 14 -8 40 -4 40 7 101 -9 161 -41 14 -7 28 -11 31 -9 7 7 70
-16 89 -32 9 -8 20 -13 25 -12 26 5 33 -5 36 -48 3 -41 7 -49 35 -65 17 -11
40 -20 50 -23 10 -2 38 -12 63 -23 25 -10 78 -29 118 -41 40 -12 106 -37 146
-56 40 -19 78 -35 84 -35 7 0 12 -4 12 -10 0 -5 12 -13 27 -16 15 -4 38 -13
52 -20 18 -10 66 -14 152 -14 108 0 130 -3 150 -19 13 -10 42 -27 64 -39 22
-11 51 -31 65 -43 14 -13 45 -33 68 -43 l42 -19 0 -66 0 -66 44 -27 c24 -16
47 -28 51 -28 4 0 36 -27 71 -60 35 -32 97 -81 136 -107 40 -26 91 -65 113
-88 22 -23 67 -63 100 -89 33 -27 81 -69 107 -95 52 -51 88 -81 100 -81 10 0
58 -49 58 -60 0 -6 3 -10 8 -9 14 2 52 -14 52 -22 0 -5 12 -15 28 -23 15 -8
42 -28 59 -45 21 -20 43 -31 62 -31 15 0 49 -3 75 -6 l46 -7 0 -68 c0 -66 1
-69 35 -95 19 -14 35 -31 35 -36 0 -16 83 -88 101 -88 9 0 19 -6 22 -14 3 -7
16 -13 29 -12 13 1 38 -1 55 -5 22 -5 31 -3 26 4 -4 6 0 8 9 4 9 -3 19 -3 22
1 17 16 41 6 94 -41 31 -28 67 -60 79 -71 l23 -19 -5 101 c-3 70 -1 103 7 108
7 5 8 3 3 -7 -5 -8 1 -5 13 5 23 20 29 32 12 21 -6 -4 -2 8 10 27 11 18 20 40
20 49 0 9 7 30 15 45 8 16 15 43 15 61 0 31 0 31 -65 38 -63 7 -64 8 -50 28 8
12 15 28 14 37 0 8 -5 4 -11 -10 -7 -16 -12 -20 -15 -12 -5 13 -2 22 27 84 10
21 14 101 14 314 1 157 -1 287 -4 289 -3 2 -6 23 -5 47 0 24 -3 45 -7 48 -3 3
-9 48 -12 100 -3 52 -7 105 -10 118 -5 21 -2 22 47 22 l52 0 0 120 c0 66 -3
120 -6 120 -4 0 -6 24 -4 53 1 28 5 133 9 232 6 161 14 234 46 425 5 30 10 75
12 100 l3 45 -58 9 c-43 6 -57 12 -57 25 1 28 77 301 118 421 58 168 75 232
73 263 -1 20 2 26 10 21 7 -4 9 -3 6 3 -5 8 25 108 61 203 5 14 11 30 12 35 1
6 8 26 15 45 7 19 16 47 19 62 6 25 11 27 76 34 l70 7 35 52 c19 30 35 56 35
59 0 3 13 27 29 53 28 45 30 54 32 171 2 96 6 125 18 135 12 9 13 9 7 0 -4 -7
-3 -13 2 -13 15 0 34 28 28 39 -4 5 3 12 14 16 11 4 18 10 15 15 -3 5 1 11 7
13 9 4 9 6 2 6 -7 1 3 16 22 35 19 19 34 42 34 53 0 15 2 16 10 3 8 -13 10
-12 10 3 0 9 11 27 25 39 19 16 22 24 13 30 -9 5 -8 8 5 8 9 0 17 3 17 8 1 9
80 96 80 87 0 -4 10 5 23 21 12 16 21 32 20 36 -2 5 6 8 17 8 12 0 20 7 20 17
0 9 3 13 6 10 4 -3 15 5 26 18 11 14 25 25 31 25 7 0 31 18 55 40 23 21 42 36
42 33 0 -3 8 4 19 15 10 12 20 19 23 17 3 -3 21 5 40 18 30 21 52 25 157 31
131 8 137 9 249 64 l72 36 0 68 0 67 43 11 c23 5 58 18 77 29 19 10 50 22 68
26 18 4 45 13 60 21 15 8 34 14 42 14 8 0 28 7 43 15 15 8 25 10 22 5 -3 -4
17 3 45 16 27 13 53 24 57 24 31 0 135 73 201 140 98 101 102 106 102 125 0 8
5 15 10 15 6 0 10 6 10 14 0 8 4 16 8 18 18 6 74 140 69 164 -2 13 -1 21 4 19
8 -6 12 3 34 89 8 32 13 61 10 66 -3 5 -1 11 5 15 5 3 10 15 10 26 0 17 7 19
81 19 l80 0 15 35 c11 27 14 87 14 271 0 236 0 236 30 322 16 48 31 96 33 107
2 11 9 33 15 48 7 16 12 32 12 37 0 9 30 79 51 122 5 10 9 24 9 31 0 8 14 42
32 76 l31 61 73 0 c72 0 74 0 114 41 22 22 40 47 40 55 0 8 4 14 8 14 5 0 26
25 48 57 21 31 44 62 51 68 7 7 9 15 6 18 -3 3 6 19 21 34 57 62 85 100 79
107 -4 4 -3 10 3 14 20 14 83 109 77 116 -4 4 -1 5 7 2 9 -3 25 7 40 24 56 67
158 169 164 163 3 -3 8 2 12 11 4 10 18 22 31 27 20 8 24 14 19 34 -5 18 -2
25 8 25 8 0 19 14 25 31 13 38 14 69 2 69 -4 0 -11 17 -14 37 -5 27 -2 40 8
46 20 11 19 32 -2 78 l-18 38 -85 2 c-47 1 -244 4 -438 8 l-354 6 64 89 c197
279 451 489 793 656 302 148 612 241 950 285 65 8 121 17 123 19 6 7 -183 63
-373 112 -578 149 -1147 207 -1675 173z m-11094 -7094 c18 -14 18 -14 1 -15
-11 0 -27 -10 -38 -22 l-18 -23 -1 22 c0 12 -3 28 -6 37 -8 21 34 22 62 1z"/>
<path d="M30920 32597 c0 -27 52 -305 71 -382 176 -699 566 -1245 1104 -1547
103 -58 207 -104 281 -123 32 -8 173 -24 314 -35 140 -11 269 -25 287 -31 49
-15 74 -19 68 -9 -3 5 3 8 14 7 11 0 18 -4 15 -8 -2 -4 3 -10 12 -13 10 -4 13
-2 8 7 -4 6 2 4 13 -6 11 -10 24 -17 29 -16 5 1 16 -1 24 -4 8 -3 42 -8 75
-10 l60 -3 10 -95 10 -94 77 -7 c42 -4 118 -21 168 -37 50 -17 107 -31 126
-31 19 0 50 -6 68 -14 19 -8 53 -17 77 -20 70 -10 146 -41 176 -70 34 -34 69
-55 58 -34 -3 7 0 5 9 -6 14 -17 11 -23 -29 -75 -199 -254 -265 -341 -265
-350 0 -23 233 1 430 45 20 4 42 -8 110 -63 47 -37 98 -78 113 -90 28 -22 28
-24 37 -172 10 -167 26 -271 44 -297 11 -14 21 -5 86 77 40 52 74 96 76 98 1
1 20 -10 41 -27 21 -16 60 -38 86 -48 27 -9 51 -24 54 -31 3 -8 13 -11 24 -8
11 4 19 2 19 -5 0 -7 7 -10 15 -6 8 3 15 1 15 -5 0 -6 5 -7 10 -4 6 3 23 -3
39 -14 16 -12 34 -21 41 -21 6 0 30 -11 53 -23 23 -13 48 -22 55 -19 7 2 11
-1 10 -8 -3 -11 63 -40 95 -40 9 0 17 -4 17 -10 0 -5 4 -10 9 -10 13 0 114
-62 123 -76 22 -34 45 -55 63 -58 17 -2 42 -68 165 -432 131 -388 185 -525
228 -576 9 -10 12 -18 7 -18 -4 0 -2 -7 5 -15 10 -12 10 -15 -1 -15 -10 -1 -8
-4 4 -11 9 -5 17 -19 17 -29 0 -16 7 -20 34 -20 27 0 39 -7 56 -30 12 -16 62
-66 111 -110 49 -44 89 -83 88 -86 0 -4 5 -10 11 -14 7 -4 13 -19 13 -34 0
-14 3 -26 8 -26 5 0 8 -4 7 -8 -4 -12 49 -72 57 -64 4 4 5 3 4 -3 -5 -15 19
-75 29 -75 11 0 102 -89 102 -99 0 -12 81 -41 93 -34 5 3 18 -5 28 -18 10 -13
19 -18 19 -11 0 7 5 10 10 7 6 -3 10 -14 10 -24 0 -15 6 -18 40 -14 l40 5 0
-139 0 -140 60 -18 c33 -10 63 -16 66 -12 3 3 19 1 35 -5 21 -7 33 -7 43 1 7
6 29 10 47 9 27 -2 34 1 33 14 -1 10 2 16 6 13 12 -7 41 6 35 15 -3 5 4 6 14
3 29 -7 56 49 52 110 -2 27 1 47 7 47 6 0 12 17 14 38 2 22 8 36 15 35 320
-63 482 -78 743 -69 107 3 226 9 264 13 l69 6 -89 32 c-266 95 -516 265 -664
451 -178 224 -293 619 -294 1009 -1 230 28 381 88 460 l25 32 -79 17 c-181 39
-406 129 -541 218 -172 112 -255 201 -342 368 -50 95 -127 298 -127 335 0 10
11 15 34 15 l34 0 7 75 c3 41 4 79 1 84 -4 5 -2 12 3 15 5 4 15 32 21 64 7 31
15 62 18 67 4 6 5 19 4 31 -2 11 6 45 18 74 12 29 20 63 19 74 -2 12 2 31 9
43 7 12 12 32 11 45 0 13 2 33 6 46 5 15 3 22 -6 22 -10 1 -9 4 3 14 23 17 41
163 24 185 -8 11 -8 15 2 18 6 3 12 9 12 14 0 6 -4 8 -9 4 -14 -8 -20 6 -22
61 -3 58 -8 76 -20 69 -5 -3 -11 5 -14 18 -4 13 -18 28 -33 35 -49 21 -92 47
-92 55 0 9 140 494 284 986 53 179 94 326 92 328 -2 2 -86 -44 -187 -103 -350
-203 -744 -431 -804 -464 -33 -18 -123 -69 -199 -113 -77 -44 -180 -98 -229
-119 -162 -70 -388 -129 -600 -158 -118 -15 -396 -12 -506 5 -309 50 -526 196
-743 500 -43 60 -142 232 -163 282 l-15 36 -36 -42 c-71 -83 -309 -175 -560
-218 -168 -28 -531 -25 -674 6 -213 46 -396 145 -574 312 -78 73 -205 228
-261 317 -39 64 -45 71 -45 49z"/>
<path d="M43875 27114 c-514 -40 -955 -142 -1369 -315 -426 -179 -886 -479
-1071 -698 -75 -89 -82 -100 -761 -1164 -282 -442 -679 -1063 -1102 -1725 -30
-45 -53 -71 -62 -69 -8 2 -14 9 -12 16 1 7 -7 15 -18 18 -11 3 -20 9 -20 14 0
5 -6 9 -14 9 -7 0 -30 11 -50 25 -20 13 -36 22 -36 19 0 -4 -11 1 -25 10 -14
9 -30 14 -35 11 -6 -4 -19 13 -29 37 -10 24 -35 79 -56 123 -20 44 -117 260
-215 480 -98 220 -198 443 -222 495 -24 52 -59 130 -78 173 -19 42 -38 76 -44
74 -15 -5 -71 -111 -120 -227 -38 -92 -72 -192 -168 -499 l-23 -74 -245 -109
-245 -109 -185 87 c-224 105 -402 175 -511 203 -106 27 -113 27 -107 -1 5 -20
598 -1361 703 -1588 19 -41 31 -76 26 -78 -4 -1 -795 129 -1757 290 l-1749
292 -190 0 c-176 0 -201 -2 -342 -32 -434 -93 -816 -244 -1218 -483 -161 -96
-384 -255 -530 -378 -129 -108 -370 -346 -496 -489 -371 -422 -723 -1004 -936
-1547 -19 -49 -37 -97 -41 -105 -3 -8 37 24 89 71 419 382 881 635 1322 724
70 14 164 28 207 32 l80 6 0 -90 c0 -61 4 -94 13 -101 17 -14 127 -24 275 -25
67 0 125 -4 128 -8 3 -5 16 -6 30 -3 31 8 295 -6 290 -15 -5 -8 77 -8 84 0 8
11 206 -10 263 -27 14 -4 17 1 17 34 0 21 2 41 5 44 7 7 176 -54 309 -111 340
-145 610 -315 804 -504 71 -69 142 -175 142 -211 0 -10 4 -16 9 -14 5 2 58 59
119 128 60 69 127 142 149 163 l40 38 159 4 c87 3 230 7 317 9 87 2 161 7 164
9 2 3 7 32 10 65 5 59 6 59 58 90 29 18 58 32 63 32 6 0 12 3 14 8 7 15 70 62
78 57 4 -2 20 7 36 22 32 29 186 113 209 113 8 0 31 8 52 19 64 32 216 89 258
97 22 4 42 8 45 9 3 1 19 5 35 9 17 4 53 13 80 21 28 8 79 19 113 23 l62 9 0
-71 c0 -39 4 -66 8 -61 4 6 86 11 197 13 105 2 193 6 197 8 9 6 257 -15 278
-23 8 -3 30 -5 48 -4 17 2 32 -2 32 -7 0 -6 26 -13 58 -16 89 -9 100 -10 108
-19 4 -4 26 -7 48 -7 23 0 52 -7 64 -16 12 -8 27 -12 33 -8 6 3 15 0 20 -7 7
-11 10 -9 15 8 6 21 8 21 102 -23 230 -106 560 -310 749 -463 138 -111 461
-416 1078 -1021 132 -129 428 -416 658 -638 397 -384 417 -401 417 -370 0 18
-7 210 -16 427 -16 420 -15 552 4 559 7 2 12 12 12 21 0 15 15 19 102 27 l103
9 8 45 c4 25 7 82 5 128 -2 45 -1 82 2 82 5 0 4 463 -2 711 l-3 127 -81 7 -81
7 -6 116 c-3 64 -2 135 3 157 5 22 14 113 19 202 5 89 14 170 20 180 5 10 15
66 22 123 7 58 17 109 23 113 8 6 8 10 0 13 -14 6 -6 54 9 54 6 0 7 3 4 6 -3
4 -2 15 3 25 6 9 13 35 16 56 3 21 8 41 11 46 2 4 35 7 72 7 l68 0 6 113 c4
61 7 153 7 203 0 68 6 111 26 175 14 46 27 99 29 116 5 30 16 60 66 168 37 81
70 161 74 180 2 6 16 34 34 63 17 28 27 52 23 52 -4 0 4 9 18 20 21 16 41 20
128 20 76 0 102 3 102 13 0 7 8 20 18 28 38 34 80 88 97 122 9 21 22 37 29 37
6 0 20 17 31 38 11 20 33 51 50 67 16 17 41 46 55 65 14 19 34 44 46 55 202
197 244 236 244 230 0 -4 6 -2 14 4 9 8 16 48 21 126 5 85 10 115 20 115 7 0
15 3 17 8 2 4 19 15 38 25 32 16 120 62 210 111 73 40 86 44 74 25 -3 -6 16 1
42 15 l49 26 307 0 c207 0 308 3 308 10 0 6 8 10 18 8 15 -3 18 10 26 100 l8
103 42 40 c46 45 67 53 131 47 25 -2 45 -2 45 0 0 2 -7 17 -16 33 -22 44 -25
67 -8 73 9 3 12 10 9 16 -3 5 -2 10 3 10 5 0 19 23 32 51 14 28 35 63 47 77
30 35 52 102 46 138 -3 20 -2 25 5 16 7 -11 11 -8 15 10 4 12 7 36 7 52 0 16
3 26 6 23 7 -6 42 86 86 224 l21 67 129 7 c122 7 128 8 128 29 0 11 9 45 20
74 11 29 20 65 20 81 0 16 7 34 15 41 8 7 15 16 15 21 0 11 128 309 139 324 4
5 14 26 21 45 8 19 26 51 42 70 15 19 28 38 28 43 0 13 75 120 99 141 19 17
21 30 21 126 l0 108 31 6 c17 3 59 6 93 6 59 0 62 1 86 38 39 58 43 63 83 103
20 21 41 49 46 62 6 15 20 26 38 30 18 3 34 15 40 30 7 14 51 53 100 86 48 34
96 67 106 73 9 7 17 18 17 26 0 7 6 15 14 18 7 3 29 29 49 57 38 55 70 158 76
240 0 10 6 15 11 12 6 -3 10 -1 10 4 0 6 -5 11 -10 11 -6 0 -10 24 -8 61 2 49
-1 63 -15 70 -9 6 -17 17 -17 25 0 8 -4 13 -9 10 -5 -3 -11 1 -15 9 -3 8 -13
15 -23 15 -10 0 -27 7 -37 15 -10 8 -23 12 -27 9 -5 -3 -6 1 -3 9 6 16 231 95
359 126 198 48 470 91 583 91 114 0 90 15 -160 98 -450 150 -803 228 -1253
278 -132 14 -637 27 -750 18z m585 -1564 l0 -60 -50 0 c-43 0 -49 2 -43 18 3
9 12 22 20 29 9 6 12 17 7 24 -4 7 -3 10 3 6 6 -4 21 5 33 18 13 14 25 25 27
25 2 0 3 -27 3 -60z"/>
<path d="M10950 23524 c-221 -27 -412 -71 -560 -129 -197 -77 -337 -153 -426
-232 -17 -16 -317 -355 -666 -755 l-635 -726 -128 466 c-70 257 -131 473 -135
481 -12 24 -76 -73 -158 -240 l-77 -155 -141 -38 -140 -38 -116 76 c-134 88
-241 146 -270 146 -24 0 -35 47 116 -500 68 -245 122 -446 121 -447 -1 -2
-408 130 -906 293 -497 162 -937 301 -977 309 -183 37 -473 1 -756 -92 -499
-165 -948 -525 -1284 -1030 -44 -65 -92 -140 -107 -166 l-27 -48 88 59 c265
177 573 272 838 259 345 -17 828 -251 1091 -529 76 -79 125 -156 125 -194 0
-13 3 -24 6 -24 3 0 32 24 65 53 76 69 208 164 234 168 11 2 26 0 33 -4 7 -5
25 -11 40 -13 15 -3 46 -9 70 -15 24 -5 47 -7 52 -4 5 3 11 1 15 -5 4 -6 70
-10 170 -10 l163 0 9 38 c8 34 12 38 58 49 28 6 66 12 86 12 20 1 66 10 101
21 36 11 85 22 109 25 44 5 107 14 142 21 23 4 159 -55 271 -118 236 -133 433
-292 590 -478 40 -47 225 -285 411 -530 406 -534 497 -654 502 -659 10 -13 17
38 56 379 l43 374 44 -1 c24 0 53 4 64 11 28 15 106 94 106 107 0 5 13 38 29
73 17 34 33 75 37 90 3 15 12 30 19 32 7 3 11 15 8 27 -4 18 -3 19 6 7 9 -13
11 -13 11 1 0 12 -13 19 -47 24 -27 4 -43 10 -36 12 7 2 9 11 7 18 -3 8 1 27
9 42 13 23 45 123 72 221 4 12 10 22 15 22 5 0 7 6 4 13 -2 7 7 35 21 62 14
28 25 56 25 63 0 18 62 176 72 183 5 3 6 14 2 24 -5 13 -4 16 4 11 7 -4 12 -1
12 7 0 14 18 55 57 130 8 15 15 41 15 58 1 17 7 33 14 36 8 3 11 9 8 14 -3 5
1 9 9 9 11 0 13 7 9 22 -3 13 -1 19 5 15 5 -4 16 6 24 21 7 15 26 48 43 75
l29 47 67 0 c66 0 68 0 93 38 15 20 42 50 62 66 l35 29 0 128 c0 107 2 127 14
123 18 -7 194 28 256 51 58 21 59 21 98 30 17 4 32 10 32 14 0 3 16 7 36 7 20
1 39 5 43 10 3 5 24 10 46 11 21 1 48 6 60 11 11 6 46 20 77 32 32 12 56 26
53 30 -2 4 7 5 22 2 22 -4 25 -2 19 13 -5 15 -4 16 8 6 10 -8 16 -9 21 -1 3 5
17 10 31 10 13 0 24 4 24 8 0 5 14 7 30 4 25 -3 29 -1 24 12 -3 9 -1 16 6 16
6 0 8 5 4 13 -5 7 0 6 11 -3 15 -12 17 -12 10 -1 -6 11 -4 13 9 8 10 -4 15 -3
11 3 -3 6 1 10 9 10 9 0 16 4 16 9 0 5 16 19 35 32 19 13 33 29 31 36 -3 7 0
10 7 7 7 -2 21 9 32 26 11 16 23 30 28 30 4 0 7 -26 7 -57 l0 -57 41 39 c22
22 47 51 54 65 7 14 21 35 32 47 51 60 102 129 136 186 l38 62 -58 11 c-32 7
-53 12 -46 13 14 1 43 56 44 85 0 12 3 15 6 8 3 -8 12 1 24 22 10 19 16 42 13
51 -4 10 0 15 12 15 14 0 15 3 6 8 -16 11 1 62 20 62 9 0 10 3 2 8 -6 4 -10
15 -8 25 1 9 -1 17 -6 17 -13 0 -18 36 -7 55 8 15 7 17 -7 12 -21 -8 -48 2
-39 16 3 6 1 7 -5 3 -7 -4 -29 1 -49 11 -45 21 -54 22 -70 10 -9 -6 -13 -5
-13 3 0 17 115 153 197 231 227 219 556 328 954 317 167 -4 168 -7 -46 97
-268 131 -540 219 -815 265 -121 21 -476 35 -570 24z m355 -964 c3 -5 1 -10
-4 -10 -6 0 -11 5 -11 10 0 6 2 10 4 10 3 0 8 -4 11 -10z m-1231 -919 c3 -5
-2 -15 -12 -22 -15 -12 -16 -12 -5 2 7 9 10 19 6 22 -3 4 -4 7 0 7 3 0 8 -4
11 -9z m-51 -18 c-4 -11 -3 -14 5 -9 7 4 12 2 12 -4 0 -7 -7 -9 -16 -6 -10 4
-13 2 -7 -7 13 -21 12 -37 -3 -37 -14 0 -14 45 0 69 11 17 16 13 9 -6z m-8
-132 c3 -5 1 -12 -5 -16 -5 -3 -10 1 -10 9 0 18 6 21 15 7z m-815 -1841 c0 -5
-5 -10 -11 -10 -5 0 -7 5 -4 10 3 6 8 10 11 10 2 0 4 -4 4 -10z"/>
<path d="M41092 20983 c1 -45 3 -55 5 -29 3 22 11 49 19 60 19 28 18 36 -6 36
-18 0 -20 -6 -18 -67z"/>
<path d="M35550 19930 c0 -13 11 -13 30 0 12 8 11 10 -7 10 -13 0 -23 -4 -23
-10z"/>
<path d="M8330 17063 c-227 -16 -497 -44 -560 -59 -19 -4 1 -14 90 -41 622
-188 1136 -560 1394 -1008 99 -172 213 -473 280 -740 73 -290 106 -548 106
-827 0 -330 -50 -563 -144 -675 -28 -33 -25 -43 13 -43 48 0 316 -59 437 -95
481 -146 833 -356 1064 -635 262 -317 454 -855 514 -1443 43 -417 25 -776 -55
-1122 -33 -141 -586 -2378 -595 -2409 -5 -14 -2 -18 9 -13 9 3 218 134 464
290 246 156 545 345 663 419 118 74 346 218 505 318 454 286 649 403 673 403
6 0 12 5 12 10 0 6 3 8 6 4 3 -3 2 -12 -2 -19 -5 -7 -9 -20 -10 -28 -1 -37
-17 -110 -24 -110 -4 0 -11 -21 -15 -47 -4 -27 -13 -73 -21 -103 -8 -30 -17
-75 -20 -100 -3 -25 -9 -62 -14 -82 -9 -42 -6 -48 27 -48 12 0 23 -6 23 -12 0
-9 4 -8 10 2 13 20 13 4 0 -20 -6 -11 -13 -48 -16 -82 -3 -35 -10 -66 -16 -69
-7 -4 -6 -9 1 -14 9 -5 8 -13 -3 -30 -10 -16 -12 -25 -4 -33 12 -12 2 -85 -11
-78 -4 3 -8 -1 -8 -9 0 -8 4 -15 8 -15 4 0 10 -14 14 -30 4 -17 11 -28 16 -24
5 3 16 -2 25 -10 14 -15 14 -16 0 -16 -9 0 -16 -4 -16 -10 0 -13 6 -13 32 1
13 7 18 7 14 1 -3 -6 4 -18 16 -27 13 -8 21 -18 18 -22 -3 -3 3 -11 12 -16 17
-12 77 7 64 20 -3 4 -12 1 -18 -5 -7 -7 -21 -11 -33 -11 -16 1 -16 2 -3 6 10
2 15 10 11 19 -3 8 0 14 6 14 6 0 11 -4 11 -9 0 -5 9 -7 20 -4 16 4 20 0 20
-20 0 -13 3 -38 6 -55 6 -28 9 -31 38 -25 17 3 46 14 64 24 18 11 40 19 48 19
8 0 22 9 31 20 10 11 23 20 30 20 7 0 13 3 13 8 0 7 90 52 105 52 22 0 144 62
216 111 30 20 79 49 109 65 30 16 83 48 118 71 35 24 65 43 67 43 2 0 54 28
115 62 61 35 120 68 132 75 18 10 12 12 -46 18 -36 4 -66 11 -66 14 0 16 14
20 28 8 13 -9 14 -9 8 1 -4 7 -2 12 4 12 6 0 8 5 5 11 -4 6 -1 9 6 8 15 -3 60
18 70 33 3 5 9 -13 13 -41 4 -28 11 -51 17 -51 6 0 8 4 5 9 -5 7 120 80 194
113 85 38 116 51 122 50 4 -1 24 10 44 23 21 14 49 28 63 31 47 10 189 63 208
77 7 5 33 11 58 13 25 2 53 8 63 13 9 5 43 12 75 16 32 4 64 14 72 21 7 8 20
14 27 14 7 0 33 7 58 15 25 8 57 17 72 20 21 4 27 12 33 44 7 40 18 48 82 56
13 2 42 6 65 10 58 10 85 15 136 21 23 4 45 10 48 15 6 11 25 12 22 2 -2 -5 2
-8 7 -8 6 0 9 3 8 7 -5 14 27 16 41 2 9 -8 18 -14 21 -13 13 2 162 -131 255
-227 106 -110 208 -238 310 -389 69 -103 210 -342 210 -357 0 -20 20 -4 51 42
96 140 379 280 782 385 125 33 128 33 140 14 6 -10 15 -19 20 -19 4 0 13 -5
20 -10 7 -6 35 -27 62 -48 28 -20 57 -46 65 -57 25 -34 83 -89 122 -115 21
-14 38 -28 38 -32 0 -5 6 -8 12 -8 7 0 33 -22 58 -49 48 -51 127 -105 173
-116 15 -4 27 -11 27 -15 0 -12 107 -23 205 -21 197 5 252 8 298 16 43 7 47
10 47 36 0 34 5 37 67 43 47 5 82 15 128 36 11 5 41 11 68 15 26 3 47 11 47
17 0 5 7 8 15 5 8 -4 58 5 111 18 64 17 130 26 199 27 57 2 101 6 98 11 -2 4
3 7 12 7 10 0 14 -5 9 -12 -6 -10 -4 -10 7 0 29 27 66 13 161 -60 197 -151
475 -447 608 -648 54 -80 49 -74 55 -68 7 7 -81 429 -119 568 -19 68 -32 129
-29 133 6 10 160 0 178 -11 5 -4 21 -5 34 -3 13 1 21 -1 18 -7 -4 -5 15 -10
41 -11 26 0 58 -4 72 -7 14 -3 49 -5 78 -5 29 0 52 -4 52 -10 0 -12 93 -1 98
12 2 5 20 9 39 9 34 0 73 28 73 52 0 5 5 6 10 3 6 -3 10 3 10 14 0 12 5 21 11
21 14 0 7 143 -8 162 -9 11 -19 50 -25 95 -1 6 -23 15 -50 18 -28 4 -52 13
-55 21 -3 8 -11 14 -19 14 -8 0 -14 5 -14 10 0 6 4 10 9 10 12 0 1 51 -18 79
-8 13 -16 30 -17 38 -4 22 -84 94 -96 87 -8 -5 -9 -2 -5 9 3 10 2 17 -3 17 -5
0 -10 10 -12 23 -2 12 -9 21 -16 19 -8 -1 -11 1 -8 6 6 11 -30 72 -44 72 -5 0
-30 31 -54 69 -41 63 -119 140 -142 141 -5 1 -32 31 -60 68 -36 46 -67 75
-100 92 -27 14 -51 27 -54 30 -3 3 -12 6 -20 8 -17 4 -70 58 -70 72 0 5 -6 10
-14 10 -8 0 -16 5 -18 10 -2 6 -21 17 -43 24 -22 8 -38 17 -36 20 11 20 -13
100 -39 126 -27 28 -34 30 -105 30 -55 0 -83 5 -102 18 -21 13 -25 14 -18 2 7
-12 6 -13 -6 -4 -8 6 -33 16 -56 24 -23 7 -40 17 -37 21 3 5 -1 6 -9 3 -8 -3
-21 2 -30 10 -9 9 -20 16 -25 16 -6 0 -13 6 -15 13 -4 9 -6 9 -6 0 -1 -9 -8
-10 -27 -3 -14 6 -31 7 -37 3 -7 -4 -6 1 2 10 12 15 12 17 -1 12 -10 -4 -43
26 -101 92 -391 447 -906 813 -1401 997 -217 82 -227 82 -1160 121 -462 19
-864 35 -893 35 l-53 0 21 21 c17 17 20 29 15 57 -3 21 -9 71 -12 112 -6 75
-26 147 -51 185 -7 11 -13 30 -13 42 0 20 -83 113 -101 113 -3 0 -19 11 -35
25 -16 14 -33 23 -39 22 -5 -2 -16 3 -24 10 -7 8 -18 12 -25 10 -6 -2 -17 3
-25 10 -7 8 -21 11 -30 8 -31 -12 -35 -10 -43 33 -5 23 -15 42 -21 42 -8 0 -7
4 2 9 19 12 -216 4 -276 -9 -24 -6 -49 -8 -54 -5 -5 4 -9 2 -9 -3 0 -5 -24
-12 -54 -15 -30 -3 -66 -13 -80 -23 -15 -9 -29 -14 -33 -11 -3 4 -11 0 -17 -8
-6 -8 -20 -16 -31 -18 -11 -2 -30 -9 -43 -15 -12 -7 -26 -11 -31 -8 -5 3 -14
0 -20 -8 -7 -8 -23 -17 -37 -20 -14 -4 -22 -11 -19 -16 3 -6 -1 -11 -9 -11 -9
-1 -28 -2 -43 -3 -16 -1 -39 -6 -52 -10 -23 -8 -23 -6 11 40 20 27 84 117 144
201 60 83 192 267 294 409 102 142 186 264 188 271 5 20 -156 16 -294 -7 -98
-17 -403 -86 -465 -105 -16 -5 -376 245 -410 285 -11 13 -18 50 -23 132 -15
256 -58 522 -99 610 l-22 48 -92 -128 c-236 -325 -273 -374 -273 -360 0 25
-35 48 -73 48 -25 0 -40 6 -51 22 -8 12 -13 25 -10 30 3 4 1 8 -4 8 -11 0 -33
70 -26 82 3 4 1 8 -5 8 -5 0 -8 9 -6 20 2 11 0 20 -6 20 -5 0 -9 10 -9 23 0
12 -7 33 -16 45 -8 12 -13 26 -10 31 3 4 -1 17 -9 27 -8 10 -15 27 -15 37 0 9
-5 17 -12 17 -6 0 -8 3 -5 7 4 3 -2 20 -12 37 -11 17 -20 34 -20 39 -1 35 -15
76 -24 70 -5 -3 -7 -1 -4 4 4 6 0 29 -8 52 -17 48 -22 83 -31 215 -4 63 -15
121 -30 163 -13 36 -21 69 -19 73 3 5 0 12 -5 15 -6 4 -15 18 -20 31 -9 21
-16 24 -65 24 -35 0 -54 4 -50 10 3 6 1 10 -5 10 -6 0 -8 5 -5 10 3 6 1 10 -5
10 -6 0 -8 5 -5 10 3 6 2 10 -3 10 -5 0 -19 22 -32 50 -13 27 -27 47 -32 44
-5 -3 -8 0 -6 7 4 19 -32 109 -43 109 -6 0 -7 5 -4 10 10 16 -33 69 -62 76
-19 5 -22 9 -11 16 10 7 10 10 -4 19 -10 5 -30 31 -45 57 -15 26 -32 50 -38
54 -5 4 -10 11 -10 15 0 5 -6 15 -12 23 -7 8 -36 43 -64 77 -32 38 -56 60 -65
56 -8 -3 -14 1 -14 11 0 9 -5 16 -11 16 -6 0 -24 14 -41 30 -16 17 -36 30 -44
30 -9 0 -12 5 -8 11 8 14 -55 69 -81 70 l-20 0 20 9 c17 7 18 9 2 9 -31 2
-180 118 -170 134 4 6 0 8 -10 4 -10 -4 -18 0 -22 12 -3 11 -19 24 -35 31 -24
10 -30 19 -30 41 0 23 5 29 23 30 21 0 21 1 2 8 -11 5 -21 4 -23 0 -2 -5 -26
-9 -54 -9 -36 0 -59 6 -81 23 -38 26 -67 44 -87 52 -8 4 -23 11 -32 16 -10 5
-24 9 -32 9 -7 0 -19 7 -26 15 -7 8 -23 15 -36 15 -13 0 -24 4 -24 9 0 10 -56
32 -63 25 -2 -2 -10 2 -17 11 -7 8 -18 15 -24 15 -7 0 -30 24 -51 53 -77 101
-357 371 -500 482 -366 282 -677 451 -1100 598 -266 93 -490 151 -675 176 -41
6 -91 12 -110 15 -229 32 -454 46 -715 44 -121 -1 -240 -3 -265 -5z m4640
-2343 c0 -5 -2 -10 -4 -10 -3 0 -8 5 -11 10 -3 6 -1 10 4 10 6 0 11 -4 11 -10z
m2497 -2696 c-3 -3 -12 -4 -19 -1 -8 3 -5 6 6 6 11 1 17 -2 13 -5z m2354
-3155 c-51 -13 -61 -10 -61 15 0 33 38 39 66 12 l21 -21 -26 -6z m2612 -326
c-7 -2 -19 -2 -25 0 -7 3 -2 5 12 5 14 0 19 -2 13 -5z m192 -23 c-28 -12 -65
-12 -65 0 0 6 19 10 43 9 32 0 37 -2 22 -9z"/>
<path d="M37960 16764 c-133 -13 -298 -38 -400 -60 -354 -79 -706 -249 -968
-468 -156 -130 -328 -327 -385 -441 -29 -58 -134 -374 -422 -1262 l-208 -642
-304 382 c-168 210 -308 383 -313 385 -14 5 -30 -83 -47 -272 l-17 -188 -100
-81 c-56 -44 -106 -84 -111 -88 -6 -4 -42 -1 -80 7 -170 36 -370 55 -388 38
-3 -3 132 -177 299 -387 167 -209 304 -383 304 -387 0 -3 -269 -29 -597 -59
-1145 -102 -1338 -121 -1398 -136 -189 -49 -487 -238 -699 -444 -380 -371
-606 -829 -717 -1455 -16 -93 -28 -171 -25 -173 3 -3 14 13 25 36 39 76 169
237 273 337 228 219 433 315 739 345 135 13 442 6 447 -10 2 -6 10 -7 19 -4
14 5 15 0 11 -35 -3 -22 -3 -44 1 -47 3 -4 6 -10 6 -13 0 -13 39 -51 47 -46 4
3 8 -2 8 -10 0 -9 6 -16 13 -17 25 -2 93 -9 112 -11 11 -2 23 -7 26 -11 3 -4
51 -10 106 -12 l100 -5 6 41 c3 22 8 43 10 46 11 11 130 -62 162 -99 l33 -39
37 80 c37 78 63 114 81 110 5 -1 16 1 26 5 38 17 163 42 167 34 1 -5 12 -1 23
9 11 10 22 17 24 16 10 -5 84 33 84 43 0 13 29 28 48 25 7 -1 25 7 40 17 15
11 29 19 32 18 13 -3 140 68 140 78 0 6 12 17 28 23 31 14 131 70 150 85 17
14 18 12 28 -58 l9 -62 95 43 c52 23 100 40 107 38 7 -3 13 -1 13 5 0 6 15 13
33 17 32 6 64 16 102 31 11 4 25 9 30 9 6 1 17 4 25 8 45 16 86 27 106 27 12
0 30 7 39 16 8 9 23 13 32 10 9 -4 35 1 58 10 30 11 66 15 123 12 44 -2 78 0
75 5 -6 10 31 9 43 -2 5 -6 27 -12 49 -15 22 -2 40 -5 40 -6 0 -1 28 -2 63 -3
57 -2 62 0 62 19 0 32 8 34 54 15 38 -17 530 -293 1135 -638 128 -73 237 -133
241 -133 10 0 2 32 -108 396 -81 267 -100 356 -73 340 4 -3 7 12 6 32 0 33 -3
37 -29 42 -32 5 -48 39 -60 120 -3 23 -11 48 -16 55 -8 9 -8 15 0 20 8 5 7 11
-2 23 -11 13 -11 14 0 8 10 -6 9 1 -3 24 -12 23 -13 30 -3 24 10 -6 10 -4 -1
9 -11 14 -11 17 0 17 9 0 10 3 4 8 -6 4 -12 21 -12 37 -1 17 -5 41 -9 54 -6
19 -4 22 7 16 11 -7 12 -6 2 6 -9 11 -11 102 -10 347 1 214 -2 333 -8 336 -5
2 20 7 57 11 59 6 67 10 72 32 4 13 4 28 1 33 -3 5 1 38 9 72 8 35 20 91 27
126 6 34 17 62 23 62 7 0 25 26 41 58 17 31 58 85 93 118 34 34 62 67 62 73 0
6 7 11 15 11 8 0 22 11 31 25 9 14 21 25 27 25 13 0 77 71 77 86 0 7 7 14 15
18 8 3 15 11 15 18 0 7 9 19 20 26 11 7 20 19 20 27 0 8 12 26 28 40 15 14 27
29 27 33 0 11 22 37 106 124 41 43 71 78 65 79 -6 1 0 5 14 9 16 5 -13 8 -82
9 -100 1 -137 11 -87 24 12 3 18 10 15 15 -3 6 8 15 25 21 22 7 29 15 25 26
-3 9 0 15 10 15 8 0 13 3 11 8 -3 4 17 18 44 32 27 13 48 29 45 35 -2 6 5 21
15 34 11 13 19 17 19 10 0 -15 27 14 48 50 10 16 10 21 1 16 -7 -5 -10 -3 -8
4 3 7 8 12 13 11 5 -1 16 10 26 24 9 15 19 24 22 21 2 -3 5 2 5 10 0 8 -5 11
-11 8 -6 -4 -4 2 5 13 25 31 37 69 32 99 -5 21 -3 26 7 20 10 -6 12 -3 8 13
-4 12 -2 20 3 16 5 -3 9 -2 9 3 1 7 13 63 27 123 3 14 6 86 8 160 2 131 -12
221 -36 236 -5 3 -9 14 -9 25 0 11 -4 18 -9 15 -5 -3 -11 1 -15 9 -4 12 4 15
44 15 l50 0 1 -352 c1 -194 1 -360 0 -368 -1 -10 2 -9 10 4 7 11 12 35 11 53
-1 18 2 33 6 33 4 0 8 8 9 18 1 9 7 37 13 62 36 140 53 271 50 400 -3 158 1
145 -52 148 l-48 3 0 88 c0 115 -13 127 -140 134 -8 0 -21 6 -28 14 -12 11 -8
32 22 127 43 137 117 288 184 376 139 184 387 355 666 461 88 33 88 34 55 41
-38 9 -490 18 -559 12z m-1319 -3347 c-5 -5 -10 8 -13 32 -2 23 1 41 5 41 5 0
4 7 -3 16 -8 8 -13 36 -13 62 0 30 -3 39 -8 27 -6 -19 -7 -19 -14 -2 -4 9 -2
24 5 32 11 13 8 14 -18 11 -25 -3 -30 0 -27 15 2 11 6 23 9 27 3 5 -1 9 -8 9
-8 0 -12 -6 -10 -12 3 -6 -2 -12 -10 -12 -11 0 -13 8 -9 31 14 79 55 229 85
311 l33 90 3 -334 c1 -189 -2 -339 -7 -344z m9 -27 c0 -5 -2 -10 -4 -10 -3 0
-8 5 -11 10 -3 6 -1 10 4 10 6 0 11 -4 11 -10z m-1760 -1071 c152 -14 342 -51
471 -92 l104 -34 -80 -8 c-80 -8 -795 2 -804 11 -3 3 -4 24 -3 47 1 32 -1 37
-8 22 -7 -18 -9 -18 -11 -2 -1 9 -3 22 -4 27 -1 6 -3 13 -4 18 -1 4 -5 1 -9
-6 -5 -7 -16 -10 -25 -6 -31 11 -18 21 29 22 26 1 49 4 52 7 9 9 170 6 292 -6z
m-340 -43 c0 -2 -7 -9 -15 -16 -12 -10 -15 -10 -15 4 0 9 7 16 15 16 8 0 15
-2 15 -4z"/>
<path d="M34590 12233 c0 -4 5 -15 10 -23 8 -13 10 -13 10 2 0 9 -4 20 -10 23
-5 3 -10 3 -10 -2z"/>
<path d="M36785 12079 c-4 -6 -5 -12 -2 -15 2 -3 7 2 10 11 7 17 1 20 -8 4z"/>
<path d="M29875 8458 c-197 -13 -452 -65 -660 -133 -154 -50 -338 -127 -324
-135 8 -4 66 -10 129 -13 256 -12 518 -94 717 -223 231 -150 497 -566 603
-941 50 -179 59 -325 25 -413 -5 -13 21 -15 206 -12 146 2 209 -1 204 -8 -3
-6 -11 -8 -16 -5 -5 4 -9 1 -9 -5 0 -7 9 -14 20 -17 11 -3 20 -12 20 -19 0 -8
5 -14 10 -14 6 0 27 -16 47 -35 20 -19 42 -35 50 -35 7 0 16 -7 19 -15 4 -8
10 -12 15 -9 5 3 9 0 9 -7 0 -7 3 -10 6 -6 3 3 24 -7 46 -23 22 -17 44 -27 49
-24 5 3 9 1 9 -5 0 -5 14 -12 30 -16 29 -6 30 -9 30 -61 0 -50 2 -55 28 -67
15 -6 29 -14 32 -18 3 -3 28 -14 55 -24 28 -11 52 -21 55 -24 4 -5 19 -14 90
-53 8 -4 26 -13 40 -18 39 -17 61 -31 126 -85 33 -27 72 -59 88 -70 15 -11 43
-35 63 -52 19 -18 40 -33 46 -33 6 0 8 -3 4 -6 -3 -3 14 -25 38 -48 46 -46 88
-141 140 -321 70 -244 75 -311 96 -1320 6 -319 13 -581 14 -583 1 -2 27 23 57
55 114 122 308 331 437 472 202 220 262 281 272 275 5 -3 6 2 3 10 -4 11 0 16
15 17 34 2 39 4 48 13 4 5 3 6 -4 2 -6 -3 -15 -2 -18 4 -4 6 -3 9 2 8 21 -6
195 14 215 25 13 7 36 25 52 40 16 15 34 27 41 27 6 0 26 12 43 28 18 15 55
43 82 62 43 31 49 40 55 80 3 25 9 51 13 56 4 6 51 32 104 58 54 26 112 57
130 70 39 26 102 56 117 56 5 0 14 6 18 13 4 7 28 19 52 27 24 8 49 20 57 27
7 7 18 13 24 13 6 0 26 11 45 25 24 19 34 22 38 13 4 -10 8 -10 14 -1 4 6 21
15 36 18 16 4 31 14 34 21 3 8 11 14 19 14 8 0 14 5 14 10 0 6 7 10 16 10 9 0
18 9 21 20 3 11 9 20 14 20 5 0 6 6 3 14 -3 7 1 20 9 27 7 8 12 20 9 27 -2 6
1 12 7 12 5 0 8 -9 6 -20 -2 -11 2 -20 8 -21 7 0 3 -4 -8 -9 -17 -7 -17 -9 -2
-9 9 -1 17 -4 17 -9 0 -15 68 -44 104 -44 20 0 36 -4 36 -9 0 -5 9 -9 20 -9
11 0 20 -4 20 -10 0 -5 7 -7 15 -4 8 4 15 2 15 -4 0 -5 17 -12 39 -16 l38 -6
7 -68 7 -68 47 -13 c26 -7 70 -14 97 -14 28 -1 56 -7 63 -14 14 -14 90 -38
109 -34 10 1 53 -9 223 -56 124 -34 150 -37 167 -18 5 4 1 5 -7 0 -8 -5 -12
-4 -7 0 10 12 39 16 32 4 -3 -4 10 -8 29 -7 26 1 40 -5 55 -23 19 -23 20 -23
33 -6 7 10 29 20 48 23 49 7 150 24 182 30 23 5 27 11 33 55 6 44 10 49 32 49
14 0 22 4 18 11 -4 6 -1 9 6 8 22 -4 69 12 69 23 0 5 5 6 10 3 6 -3 10 -2 10
3 0 6 16 13 35 16 19 4 41 14 50 22 8 8 20 12 26 8 7 -4 9 -3 5 4 -3 6 3 13
14 17 11 3 42 21 69 40 27 19 52 31 55 28 3 -4 6 2 6 13 0 10 11 28 23 39 33
28 46 56 40 85 -6 34 25 50 152 83 226 59 359 69 526 41 229 -39 495 -167 699
-337 30 -25 56 -44 58 -42 7 7 -142 287 -206 389 -148 234 -354 473 -552 638
-354 296 -834 492 -1195 489 -103 -1 -147 -7 -315 -45 -107 -25 -319 -72 -470
-106 -151 -34 -483 -108 -737 -166 -255 -57 -469 -104 -478 -104 -11 0 -12 5
-5 23 12 29 181 482 265 711 36 98 64 180 62 182 -11 11 -130 -37 -265 -106
l-154 -79 -130 49 c-72 27 -134 52 -138 57 -4 4 -26 60 -50 123 -48 130 -110
260 -134 279 -20 16 -9 41 -207 -486 -85 -227 -157 -413 -160 -413 -4 0 -253
341 -555 758 -301 416 -568 781 -593 811 -123 146 -436 318 -736 404 -248 72
-550 103 -820 85z"/>
<path d="M34218 5083 c7 -3 16 -2 19 1 4 3 -2 6 -13 5 -11 0 -14 -3 -6 -6z"/>
<path d="M33990 5050 c-8 -5 -10 -10 -5 -10 6 0 17 5 25 10 8 5 11 10 5 10 -5
0 -17 -5 -25 -10z"/>
</g>
</svg>
